<?xml version="1.0" encoding="UTF-8"?>
<svg version="1.1" xmlns="http://www.w3.org/2000/svg" width="2000" height="2000">
<path d="M0 0 C50.82 0 101.64 0 154 0 C157.37446499 8.99857331 157.37446499 8.99857331 158.47949219 12.87231445 C158.85789497 14.18915977 158.85789497 14.18915977 159.24394226 15.53260803 C159.64139397 16.93379128 159.64139397 16.93379128 160.046875 18.36328125 C160.33460281 19.36689194 160.62233063 20.37050262 160.91877747 21.40452576 C161.53996491 23.57191549 162.15977712 25.73969977 162.77835083 27.90783691 C164.4528616 33.77533022 166.13874529 39.63955435 167.82421875 45.50390625 C168.17109238 46.71146576 168.517966 47.91902527 168.87535095 49.16317749 C172.38699374 61.37377333 175.9678249 73.563635 179.5625 85.75 C180.81014595 89.98169713 182.05752658 94.2134724 183.3046875 98.4453125 C183.61125778 99.48547012 183.91782806 100.52562775 184.23368835 101.5973053 C187.57291733 112.93366093 190.88190668 124.27879904 194.1875 135.625 C195.34503409 139.59766149 196.50258441 143.57031826 197.66015625 147.54296875 C198.08121895 148.98809593 198.08121895 148.98809593 198.51078796 150.4624176 C202.60663751 164.5168878 206.72273445 178.56543528 210.83753967 192.61436462 C212.46368261 198.16689941 214.08784315 203.72001089 215.7109375 209.2734375 C222.11740398 231.18913288 228.5549363 253.09563161 235 275 C246.04515462 312.5383622 246.04515462 312.5383622 251.5 331.1875 C251.735979 331.99424164 251.97195801 332.80098328 252.21508789 333.63217163 C254.03325271 339.84864499 255.85017835 346.06548033 257.66699219 352.28234863 C259.27736429 357.79258355 260.88834693 363.3026396 262.5 368.8125 C262.73599915 369.6193927 262.97199829 370.4262854 263.21514893 371.25762939 C266.70299936 383.18012407 270.2039719 395.09874134 273.7109375 407.015625 C273.91898199 407.72258703 274.12702648 408.42954906 274.34137535 409.15793419 C276.07131977 415.03640774 277.80138822 420.91484478 279.53157425 426.79324722 C284.905908 445.05313977 290.26965799 463.31593104 295.59063721 481.59146118 C300.09812771 497.0723764 304.6104161 512.55192925 309.16091919 528.02026367 C309.70671723 529.8771879 310.25143309 531.73443067 310.79489136 533.59204102 C313.72797869 543.61403359 316.77373174 553.57369822 320.17211914 563.44918823 C322 568.798351 322 568.798351 322 571 C322.99 571 323.98 571 325 571 C326.92062231 564.62171431 328.81964484 558.23768124 330.6875 551.84375 C330.94177765 550.97389969 331.1960553 550.10404938 331.45803833 549.20783997 C332.30602387 546.30542034 333.15314318 543.40274916 334 540.5 C334.30000916 539.4719223 334.60001831 538.4438446 334.90911865 537.38461304 C340.35740866 518.70625555 345.74858784 500.01163559 351.125 481.3125 C357.74618971 458.28449159 364.38907941 435.26292976 371.0625 412.25 C371.27180145 411.52818542 371.48110291 410.80637085 371.69674683 410.06268311 C376.24265297 394.38556334 380.79309104 378.70976252 385.34765625 363.03515625 C386.77353013 358.12763107 388.19930543 353.22007727 389.625 348.3125 C389.97990509 347.09091187 390.33481018 345.86932373 390.70046997 344.61071777 C398.11164271 319.09712362 405.48263581 293.57194982 412.85279083 268.04648209 C420.23017652 242.49603489 427.61955045 216.94922439 435.04296875 191.41210938 C442.62105703 165.33954171 450.15279151 139.25362856 457.68386841 113.16744995 C463.29722413 93.72416057 468.91218293 74.28137676 474.55859375 54.84765625 C474.77171833 54.11406261 474.98484291 53.38046898 475.20442581 52.62464523 C476.99109467 46.47518905 478.77826092 40.32587799 480.56860352 34.17749023 C481.27979867 31.73507748 481.99067448 29.29257171 482.70118713 26.84996033 C483.32649418 24.70028829 483.95250499 22.55082075 484.57945251 20.40162659 C486.25088015 14.65333 487.8478888 8.89230657 489.36268616 3.10057068 C490 1 490 1 491 0 C492.88561518 -0.09654727 494.77489455 -0.12187241 496.66297913 -0.12025452 C497.89282028 -0.12162918 499.12266144 -0.12300385 500.38977051 -0.12442017 C501.76513696 -0.12088056 503.14050317 -0.11724574 504.51586914 -0.11352539 C505.95442198 -0.11324352 507.39297496 -0.11340124 508.83152771 -0.1139679 C512.74871143 -0.11425589 516.66586479 -0.10835884 520.58304143 -0.10139394 C524.67233837 -0.09516074 528.76163593 -0.09455663 532.85093689 -0.09336853 C540.59992398 -0.09025511 548.34889703 -0.08204159 556.09787792 -0.07201904 C564.91756209 -0.06085822 573.73724691 -0.05534753 582.55693638 -0.05032361 C600.70463223 -0.03985898 618.85231499 -0.02225934 637 0 C636.52554715 1.74625076 636.05060936 3.49236976 635.57546997 5.23843384 C635.31104158 6.21081812 635.0466132 7.1832024 634.77417183 8.18505287 C633.76543082 11.85291122 632.7021535 15.50253472 631.6171875 19.1484375 C631.40211044 19.87415451 631.18703339 20.59987152 630.96543884 21.34757996 C630.27026446 23.69054394 629.57289236 26.03284427 628.875 28.375 C628.63123627 29.19410858 628.38747253 30.01321716 628.13632202 30.85714722 C624.18931665 44.11249488 620.13361313 57.33095451 616.01249695 70.53323364 C612.83545248 80.72211 609.70124898 90.92427754 606.5625 101.125 C606.05539993 102.77295059 606.05539993 102.77295059 605.53805542 104.45419312 C595.81602271 136.05716931 586.17232981 167.68423636 576.55859375 199.3203125 C575.47665562 202.88023664 574.39462438 206.44013247 573.3125 210 C573.04416351 210.88284668 572.77582703 211.76569336 572.49935913 212.67529297 C566.84702539 231.26617353 561.14354413 249.8413107 555.44191742 268.41711426 C555.19295967 269.22821655 554.94400192 270.03931885 554.6875 270.875 C554.43854225 271.68610229 554.1895845 272.49720459 553.93308258 273.33288574 C546.6322327 297.1199997 539.3648134 320.91673941 532.14794922 344.72949219 C531.47105187 346.96289766 530.79413133 349.19629611 530.1171875 351.4296875 C529.78371307 352.52990234 529.45023865 353.63011719 529.10665894 354.76367188 C525.02544656 368.22258051 520.91878821 381.67372527 516.8125 395.125 C515.30334696 400.06899868 513.79422797 405.01300775 512.28515625 409.95703125 C511.92060837 411.15134262 511.55606049 412.34565399 511.1804657 413.57615662 C507.69803791 424.9865658 504.22265531 436.39911335 500.75 447.8125 C500.46441223 448.75107849 500.17882446 449.68965698 499.88458252 450.65667725 C497.66150623 457.96295834 495.43892259 465.26938926 493.2164917 472.5758667 C473.05293036 538.86538874 452.84180495 605.14014026 432.50734138 671.37745285 C430.53979529 677.78661933 428.57275341 684.19594045 426.6060009 690.60535049 C425.37317658 694.62286891 424.14007025 698.64030031 422.90631104 702.65753174 C418.06735411 718.41419005 413.23692424 734.17307861 408.48209 749.95536041 C407.87597075 751.96694396 407.2692396 753.97834195 406.662323 755.98968506 C404.81397729 762.11654582 402.97098575 768.24493404 401.13818359 774.37646484 C400.49338254 776.51796944 399.84837609 778.65941221 399.203125 780.80078125 C398.77820267 782.23423134 398.77820267 782.23423134 398.34469604 783.69664001 C397.94445724 785.01916527 397.94445724 785.01916527 397.53613281 786.3684082 C397.31016418 787.12370316 397.08419556 787.87899811 396.85137939 788.65718079 C395.80523477 791.53595345 394.3697993 794.2604014 393 797 C343.5 797 294 797 243 797 C240.94268934 792.19960845 239.22236029 787.80421187 237.71484375 782.859375 C237.50235992 782.16631256 237.2898761 781.47325012 237.07095337 780.75918579 C236.35604861 778.42391954 235.64680542 776.08697254 234.9375 773.75 C234.41366946 772.0345643 233.88948745 770.31923589 233.36499023 768.60400391 C232.20425381 764.80538162 231.04607404 761.00599151 229.88964844 757.20605469 C227.91293735 750.7114425 225.92929485 744.21895645 223.9453125 737.7265625 C217.59997691 716.95587535 211.27065336 696.18031588 204.94921875 675.40234375 C204.63123794 674.35718251 204.63123794 674.35718251 204.30683327 673.29090691 C202.34870094 666.85472818 200.3906375 660.41852851 198.43276978 653.98226929 C191.32362029 630.61258073 184.19042998 607.25030052 177.04774475 583.89084244 C170.50348495 562.48803501 163.98041628 541.07899654 157.4876709 519.66049194 C151.35466434 499.43126021 145.18158209 479.21442729 139 459 C132.39544737 437.40223209 125.80393704 415.80069583 119.25 394.1875 C113.61930725 375.62036489 107.97534746 357.05735558 102.3125 338.5 C101.94456329 337.29425323 101.57662659 336.08850647 101.19754028 334.84622192 C96.70575912 320.12810471 92.20931185 305.41141565 87.7109375 290.6953125 C85.8697444 284.67188945 84.02858539 278.64845598 82.1875 272.625 C81.95682579 271.87031307 81.72615158 271.11562614 81.48848724 270.33806992 C74.45728388 247.33386421 67.4394697 224.32562075 60.4375 201.3125 C60.22184639 200.60373089 60.00619278 199.89496178 59.78400421 199.16471481 C56.30483535 187.72984541 52.8268332 176.29462121 49.34895325 164.85935974 C46.08734448 154.13524148 42.8253148 143.41125139 39.5625 132.6875 C39.3487888 131.98508053 39.13507759 131.28266106 38.91489029 130.55895615 C30.53287537 103.00983588 22.1237082 75.46903547 13.70265484 47.93182468 C12.63776083 44.44939179 11.5734036 40.96679699 10.51042175 37.48377991 C8.62229827 31.29817115 6.72828995 25.11453625 4.81542969 18.93652344 C4.48380829 17.86071014 4.15218689 16.78489685 3.81051636 15.67648315 C3.20140447 13.70108153 2.58910322 11.72665921 1.97293091 9.75344849 C1.70971039 8.89750092 1.44648987 8.04155334 1.17529297 7.15966797 C0.9464743 6.42263641 0.71765564 5.68560486 0.48190308 4.92623901 C0 3 0 3 0 0 Z " fill="#000000" transform="translate(215,601)"/>
<path d="M0 0 C1.30433707 0.00092179 2.60867414 0.00184359 3.95253658 0.00279331 C5.03800137 0.00151167 5.03800137 0.00151167 6.14539474 0.00020415 C8.58837104 -0.00145279 11.03127979 0.00407418 13.47424984 0.00952244 C15.21821752 0.00980429 16.96218531 0.00964662 18.70615292 0.00907993 C23.45595252 0.00879188 28.2057271 0.01468986 32.95552087 0.02165389 C37.91366179 0.02788614 42.87180323 0.02849112 47.82994747 0.0296793 C57.22577585 0.032793 66.62159266 0.0410069 76.01741594 0.05102879 C86.71130907 0.06218873 97.40520274 0.06770008 108.09910023 0.07272422 C130.10363248 0.08318948 152.1081543 0.10078967 174.11267757 0.12304783 C173.74898067 1.29781681 173.38528378 2.47258579 173.01056576 3.68295383 C171.63174906 8.13670721 170.25302921 12.59049057 168.87433529 17.04428196 C168.28313356 18.95407989 167.69190726 20.86387021 167.10065365 22.77365208 C157.91048996 52.45856444 148.7862415 82.16178686 139.77457333 111.90142918 C134.49481513 129.32266761 129.16708651 146.72847217 123.80017757 164.12304783 C119.17767477 179.10552131 114.59618754 194.09838159 110.11267757 209.12304783 C105.70969693 223.87604004 101.21409224 238.5988236 96.67517757 253.31054783 C90.38120913 273.71395395 84.13756529 294.13219175 77.92517757 314.56054783 C77.70493546 315.28472778 77.48469334 316.00890774 77.25777721 316.75503254 C75.23087503 323.41978387 73.20435384 330.08465098 71.17836666 336.74968052 C68.06856048 346.98019404 64.95673201 357.21009019 61.84314632 367.43945408 C61.62710373 368.14924475 61.41106113 368.85903542 61.18847179 369.59033489 C60.09878652 373.17037144 59.00906312 376.75039638 57.9193182 380.33041477 C55.95601024 386.78028959 53.99294509 393.23023832 52.02990246 399.6801939 C51.59299255 401.11574539 51.15608002 402.55129608 50.71916485 403.98684597 C47.6214529 414.16486336 44.52433413 424.34306111 41.42755795 434.52136326 C25.57359156 486.62884562 9.69004049 538.72715971 -6.25890446 590.80566502 C-6.80171111 592.57812575 -7.34451714 594.35058668 -7.88732243 596.12304783 C-8.13037113 596.91666721 -8.37341984 597.7102866 -8.62383366 598.52795506 C-14.84482933 618.84253866 -21.03018125 639.16780728 -27.19982243 659.49804783 C-27.56639957 660.70596989 -27.93297672 661.91389194 -28.31066227 663.1584177 C-29.05058408 665.59657299 -29.79050312 668.03472911 -30.53041935 670.47288609 C-36.00688174 688.51863499 -41.48360563 706.56427422 -46.98697758 724.60183811 C-48.98077676 731.13977002 -50.96648563 737.68011797 -52.94851208 744.22162533 C-54.69056122 749.96994629 -56.43747273 755.71677792 -58.18730831 761.46273327 C-59.26751904 765.01056148 -60.34545493 768.55904597 -61.41802311 772.10919285 C-62.61444963 776.06905125 -63.82080092 780.02581918 -65.02794743 783.98242283 C-65.5691573 785.78200947 -65.5691573 785.78200947 -66.1213007 787.61795139 C-66.45691013 788.71243595 -66.79251957 789.80692051 -67.13829899 790.93457127 C-67.42916386 791.89280796 -67.72002872 792.85104465 -68.01970768 793.83831882 C-68.88732243 796.12304783 -68.88732243 796.12304783 -70.88732243 798.12304783 C-73.86645794 798.36914349 -73.86645794 798.36914349 -77.77150822 798.36355686 C-78.48783873 798.36526571 -79.20416924 798.36697456 -79.94220674 798.36873519 C-82.35451344 798.37204257 -84.76654504 798.3610061 -87.17882633 798.35009861 C-88.90323728 798.34953476 -90.6276487 798.34985053 -92.35205936 798.35098362 C-97.04398181 798.35155918 -101.7358027 798.33977214 -106.42770147 798.3258357 C-111.32710892 798.31336206 -116.2265185 798.31216051 -121.12593937 798.30978489 C-130.40842033 798.3035602 -139.69085437 798.28713604 -148.97331464 798.26708591 C-159.53905427 798.24475763 -170.10479611 798.23374122 -180.67055345 798.22369504 C-202.40950266 798.20277064 -224.14840959 798.1675755 -245.88732243 798.12304783 C-245.27762702 794.342655 -244.56973305 790.7422053 -243.45128727 787.07885838 C-243.15882114 786.11433247 -242.86635502 785.14980656 -242.56502628 784.15605259 C-242.08647694 782.59864101 -242.08647694 782.59864101 -241.59825993 781.00976658 C-241.09590321 779.35899868 -241.09590321 779.35899868 -240.58339787 777.67488194 C-239.47998248 774.05232543 -238.3711798 770.43144189 -237.26232243 766.81054783 C-236.48661665 764.26767454 -235.71120537 761.72471317 -234.93615055 759.18164158 C-232.59205765 751.49375306 -230.24018118 743.80825779 -227.88732243 736.12304783 C-227.22095665 733.94548375 -226.55461418 731.76791254 -225.88829899 729.59033298 C-223.44322794 721.60082119 -220.99702039 713.61165882 -218.5482111 705.62329197 C-213.5046594 689.16619415 -208.5016624 672.69692827 -203.50646305 656.22509861 C-197.60855476 636.77757862 -191.68606134 617.33766458 -185.75087833 597.90149021 C-181.71504283 584.68439711 -177.68388892 571.46595021 -173.67638493 558.24023533 C-173.33256779 557.10561359 -172.98875065 555.97099186 -172.63451481 554.80198765 C-171.94057927 552.5118234 -171.24665023 550.22165718 -170.5527277 547.93148899 C-163.7570478 525.50506758 -156.89144618 503.10096564 -149.98901844 480.7072382 C-144.12147734 461.67061641 -138.29218668 442.62338438 -132.54650211 423.5495615 C-128.53255376 410.2286637 -124.46653514 396.92409363 -120.38732243 383.62304783 C-115.83515965 368.77820756 -111.3065834 353.92679301 -106.82482243 339.06054783 C-100.97852019 319.67037452 -95.06035746 300.3023812 -89.13732243 280.93554783 C-82.44930541 259.06698371 -75.77314553 237.19502176 -69.13732243 215.31054783 C-63.50670853 196.74338885 -57.86265131 178.18040893 -52.19982243 159.62304783 C-51.83554142 158.42926517 -51.47126041 157.23548252 -51.09594059 156.00552464 C-46.71526928 141.65127448 -42.33012525 127.29839298 -37.94309902 112.94608402 C-37.21022725 110.54843671 -36.47739637 108.15077691 -35.74457645 105.75311375 C-35.25594602 104.15441936 -34.76731382 102.55572551 -34.27867985 100.9570322 C-34.03718236 100.16690865 -33.79568487 99.37678509 -33.54686928 98.56271839 C-32.14526711 93.97718928 -30.74323025 89.39179336 -29.3408556 84.80650043 C-24.70529103 69.64890855 -20.08116401 54.48794515 -15.48497868 39.31836033 C-15.28071262 38.6442247 -15.07644657 37.97008907 -14.86599064 37.27552509 C-11.38863586 25.796848 -7.92954802 14.31270361 -4.48473454 2.8242197 C-3.47773154 -0.04329025 -3.21379974 0.13696118 0 0 Z " fill="#000000" transform="translate(916.8873224258423,600.8769521713257)"/>
<path d="M0 0 C0.73855225 0.24340118 1.47710449 0.48680237 2.23803711 0.73757935 C12.77021736 4.23048141 22.91258357 8.32136474 33 12.9375 C34.19399414 13.47914795 35.38798828 14.0207959 36.61816406 14.57885742 C53.27094453 22.21928636 68.82090814 30.62501086 84 40.9375 C85.48404468 41.92888006 86.96840489 42.91978801 88.453125 43.91015625 C95.79227709 48.84572319 102.90786777 54.02630869 109.86328125 59.48828125 C112.47159385 61.5249089 115.11170595 63.50762527 117.76708984 65.48193359 C125.41898357 71.21911113 132.30265302 77.6622252 139.21728516 84.25634766 C141.36592719 86.28258007 143.55910103 88.25452871 145.75952148 90.22412109 C152.28597065 96.08456242 158.22153912 102.35697515 164 108.9375 C164.49000488 109.4934082 164.98000977 110.04931641 165.48486328 110.62207031 C172.17681357 118.24112783 178.60838753 126.01846769 184.66650391 134.15332031 C185.58434763 135.381369 186.50890825 136.60441676 187.43896484 137.82324219 C238.52193447 204.84383409 265.72812101 290.90379638 261.63237 423.31674194 C253.94509362 479.94681663 235.13584441 533.35701312 205 581.9375 C204.35804688 583.00484375 203.71609375 584.0721875 203.0546875 585.171875 C198.37727971 592.80938143 192.91906919 599.88222784 187.48583984 606.99023438 C186.12461612 608.77418449 184.77350618 610.56521948 183.42578125 612.359375 C172.32651229 627.06518506 160.0798374 640.96314516 147 653.9375 C146.28199219 654.66710938 145.56398438 655.39671875 144.82421875 656.1484375 C140.78302925 660.24134241 136.6971291 664.21205568 132.32421875 667.94921875 C130.54027804 669.47531257 128.77557425 671.02391708 127.01953125 672.58203125 C118.40638764 680.17835422 109.33900659 686.95876846 99.94873047 693.56298828 C98.3437704 694.69502601 96.75033184 695.8433805 95.16015625 696.99609375 C88.76355876 701.60462405 82.03106377 705.60954972 75.24316406 709.60400391 C72.82367067 711.04232268 70.42337188 712.50976326 68.0234375 713.98046875 C46.05583349 727.35179022 23.29100151 737.5442312 -1 745.9375 C-2.15798096 746.34492432 -3.31596191 746.75234863 -4.5090332 747.17211914 C-14.19470076 750.50749984 -23.97964582 753.11181781 -33.9375 755.5 C-34.74237854 755.69481964 -35.54725708 755.88963928 -36.37652588 756.09036255 C-49.83358242 759.33738377 -63.28889932 761.9960059 -77 763.9375 C-78.37395094 764.14940756 -79.74767127 764.36281894 -81.12109375 764.578125 C-97.49051585 767.00322457 -114.10565784 767.1501175 -130.625 767.125 C-131.4962854 767.12373108 -132.3675708 767.12246216 -133.26525879 767.12115479 C-179.18028037 766.99449121 -224.87948228 758.87800389 -268 742.9375 C-268.88171875 742.61233398 -269.7634375 742.28716797 -270.671875 741.95214844 C-296.08809083 732.41166801 -320.18817729 719.58158219 -343 704.9375 C-343.61955566 704.5451416 -344.23911133 704.1527832 -344.87744141 703.74853516 C-353.27385005 698.42306991 -361.17242228 692.42247822 -369.07324219 686.3984375 C-370.83317019 685.0639964 -372.60471228 683.7475679 -374.3828125 682.4375 C-382.60253562 676.29795251 -389.9822141 669.4971894 -397.40673828 662.43359375 C-399.30760876 660.64865132 -401.26404798 658.93948066 -403.25 657.25 C-411.1565152 650.40683391 -418.18144187 642.93103107 -424.68359375 634.75390625 C-427.19815224 631.69657628 -429.85416225 628.82154128 -432.5625 625.9375 C-436.66446567 621.53009868 -440.35458637 616.98408069 -443.80859375 612.05078125 C-445.43345623 609.74237591 -447.0847925 607.4818075 -448.78515625 605.23046875 C-461.86471464 587.77171422 -473.83440246 568.79930858 -483.02490234 548.98339844 C-484.12091031 546.68381238 -485.28581458 544.42624499 -486.45703125 542.1640625 C-505.54678002 504.69236371 -516.40786195 462.85130527 -521.75 421.3125 C-521.86569336 420.41450684 -521.98138672 419.51651367 -522.10058594 418.59130859 C-523.88846901 403.60623999 -524.20700687 388.57429637 -524.1875 373.5 C-524.18689575 372.62832184 -524.1862915 371.75664368 -524.18566895 370.85855103 C-524.13141213 341.85199641 -521.72713552 312.76327459 -514.65429688 284.54931641 C-514.17266391 282.62673827 -513.70154765 280.70151798 -513.23632812 278.77490234 C-506.09928114 249.39021295 -495.73227387 221.89148266 -482 194.9375 C-481.18326397 193.29703915 -480.36684098 191.65642239 -479.55078125 190.015625 C-469.72657977 170.54779906 -457.79541326 152.2899319 -444.56201172 134.98291016 C-443.11284776 133.08527095 -441.68071481 131.17619065 -440.25390625 129.26171875 C-435.63911409 123.10925169 -430.7680103 117.29197781 -425.51953125 111.66796875 C-423.57135308 109.55668729 -421.69087534 107.42045724 -419.8203125 105.2421875 C-415.45398447 100.23401219 -410.76952147 95.56083457 -406.0625 90.875 C-405.20720703 90.01583984 -404.35191406 89.15667969 -403.47070312 88.27148438 C-398.47652685 83.28492698 -393.37691877 78.50769387 -388 73.9375 C-386.64455078 72.75994141 -386.64455078 72.75994141 -385.26171875 71.55859375 C-358.2264559 48.62579871 -328.01086035 29.11415101 -296 13.9375 C-295.25395508 13.58333008 -294.50791016 13.22916016 -293.73925781 12.86425781 C-216.31085543 -23.21156249 -126.27955661 -30.98480343 0 0 Z " fill="#000000" transform="translate(1535,646.0625)"/>
</svg>
