<?xml version="1.0" encoding="UTF-8"?>
<svg version="1.1" xmlns="http://www.w3.org/2000/svg" width="2000" height="2000">
<path d="M0 0 C0.95486298 0.00444122 1.90972595 0.00888245 2.89352417 0.01345825 C4.51497849 0.01368484 4.51497849 0.01368484 6.16918945 0.01391602 C7.92548172 0.02939987 7.92548172 0.02939987 9.71725464 0.04519653 C11.51088943 0.04944138 11.51088943 0.04944138 13.34075928 0.05377197 C17.17208733 0.06499599 21.00318436 0.09010472 24.83444214 0.11550903 C27.42688669 0.12553596 30.01933489 0.1346623 32.61178589 0.14285278 C38.97775056 0.16494257 45.34357985 0.19844197 51.70944214 0.24050903 C50.37268286 6.55520319 48.77028261 12.71048879 46.90866089 18.88894653 C46.63606445 19.80267029 46.36346802 20.71639404 46.08261108 21.6578064 C45.1905557 24.64466516 44.29387981 27.63011311 43.39694214 30.61550903 C42.76890187 32.71359611 42.14105645 34.81174153 41.51339722 36.90994263 C39.58388794 43.3550134 37.64725473 49.79793078 35.70944214 56.24050903 C35.11438957 58.2203266 34.51933747 60.2001443 33.92428589 62.17996216 C32.25163952 67.74275811 30.5751344 73.30438395 28.89694214 78.86550903 C28.52513321 80.09874908 28.52513321 80.09874908 28.14581299 81.35690308 C24.54701661 93.28572188 20.86832528 105.18881149 17.16888428 117.08677673 C13.60448432 128.5588012 10.09115134 140.04601004 6.59222412 151.53814697 C5.479902 155.19107103 4.36642447 158.84364125 3.25265503 162.49612427 C1.624372 167.83596652 -0.00368404 173.17587786 -1.63137817 178.51589966 C-1.84393344 179.2132318 -2.0564887 179.91056395 -2.27548504 180.62902737 C-3.43151424 184.42175237 -4.58738116 188.21452677 -5.74307251 192.00735474 C-8.53057967 201.15549589 -11.31911035 210.30332309 -14.11016941 219.45038128 C-15.3545805 223.52885762 -16.59831071 227.60753892 -17.8404541 231.68670654 C-19.0110595 235.53094272 -20.18330708 239.37467421 -21.35681534 243.21802521 C-21.79131775 244.6421354 -22.22520287 246.06643408 -22.65844345 247.49092865 C-23.25170497 249.44123934 -23.84735955 251.39082162 -24.44314575 253.34036255 C-24.77746109 254.43703751 -25.11177643 255.53371246 -25.45622253 256.66362 C-26.29055786 259.24050903 -26.29055786 259.24050903 -27.29055786 261.24050903 C-45.44055786 261.24050903 -63.59055786 261.24050903 -82.29055786 261.24050903 C-75.40670938 237.14703933 -75.40670938 237.14703933 -72.00540161 226.13894653 C-71.42672414 224.25617087 -70.84804839 222.37339467 -70.26944637 220.49059582 C-69.66819499 218.53533108 -69.06598011 216.58036562 -68.46347046 214.62548828 C-66.54813677 208.41042713 -64.63970123 202.19324599 -62.73096466 195.97615623 C-62.30489897 194.5884316 -61.87876687 193.20072735 -61.45256805 191.81304359 C-57.90971558 180.2771966 -54.39756 168.7323727 -50.91555786 157.17800903 C-45.75709247 140.06540874 -40.55787431 122.96538382 -35.34951782 105.86791992 C-28.61632656 83.76422287 -21.88776594 61.65913101 -15.20135498 39.54122925 C-14.51938913 37.2857449 -13.83692727 35.03041046 -13.15393066 32.77523804 C-12.21617507 29.67818335 -11.28040605 26.58053559 -10.34524536 23.48269653 C-10.07745773 22.59934631 -9.8096701 21.71599609 -9.5337677 20.80587769 C-7.90327198 15.39383187 -6.41339158 9.96414051 -5.034729 4.48199463 C-4.03428752 1.46860825 -3.22459395 0.33858301 0 0 Z " fill="#000000" transform="translate(1577.2905578613281,868.7594909667969)"/>
<path d="M0 0 C16.5 0 33 0 50 0 C57.2144401 23.61089487 64.19222664 47.28155685 71.08468628 70.98802185 C74.54994707 82.90103161 78.04065797 94.80656443 81.53244019 106.71182251 C82.61794398 110.41343867 83.70274741 114.1152594 84.78735352 117.81713867 C87.79148786 128.06904901 90.79712822 138.32047489 93.82113647 148.56654358 C94.95429243 152.40674796 96.08504433 156.247658 97.21551514 160.08865356 C97.7321648 161.8413754 98.25007726 163.59372556 98.76934814 165.34567261 C99.4743535 167.72433245 100.17514036 170.10419701 100.875 172.484375 C101.17994888 173.50667961 101.17994888 173.50667961 101.49105835 174.54963684 C102.60169111 178.34472471 103.43212718 182.08681256 104 186 C104.66 186 105.32 186 106 186 C106.18216064 185.21117432 106.36432129 184.42234863 106.55200195 183.60961914 C110.032702 169.12177657 114.34915161 154.86551787 118.55773926 140.57678223 C119.59063642 137.06805519 120.62050015 133.55843865 121.65039062 130.04882812 C122.05952158 128.65472325 122.46865549 127.26061925 122.87779236 125.86651611 C123.08021986 125.1767292 123.28264736 124.48694229 123.49120903 123.77625275 C124.10707321 121.67812769 124.72331143 119.58011277 125.33961487 117.4821167 C131.88133334 95.207511 138.32602937 72.90463849 144.75805664 50.59814453 C145.69832841 47.33744899 146.63918106 44.07692141 147.58007812 40.81640625 C147.89042999 39.74038147 148.20078186 38.66435669 148.52053833 37.5557251 C149.13193885 35.43596486 149.74364551 33.3162929 150.35568237 31.19671631 C151.83689441 26.06120593 153.30704477 20.92293426 154.75634766 15.77832031 C155.17120171 14.31007309 155.17120171 14.31007309 155.59443665 12.81216431 C156.11614923 10.96317152 156.63515081 9.113411 157.15104675 7.26278687 C158.88871202 1.11128798 158.88871202 1.11128798 160 0 C161.47354348 -0.09304018 162.95150591 -0.11746265 164.42797852 -0.11352539 C165.36887833 -0.11344986 166.30977814 -0.11337433 167.27919006 -0.11329651 C168.30209641 -0.10813522 169.32500275 -0.10297394 170.37890625 -0.09765625 C171.42070541 -0.0962413 172.46250458 -0.09482635 173.53587341 -0.09336853 C176.87811094 -0.0877508 180.22028257 -0.0751953 183.5625 -0.0625 C185.82226466 -0.05748728 188.08203037 -0.05292398 190.34179688 -0.04882812 C195.89455391 -0.03777561 201.44727225 -0.02102024 207 0 C205.90866004 5.15195282 204.7235542 10.19880408 203.1015625 15.21484375 C202.71581055 16.42140625 202.33005859 17.62796875 201.93261719 18.87109375 C201.72229858 19.5244873 201.51197998 20.17788086 201.29528809 20.85107422 C195.79360322 37.97633333 190.58225101 55.19004979 185.3817215 72.40850067 C183.43308506 78.86003322 181.48292055 85.31110341 179.53125 91.76171875 C179.1974124 92.86512478 179.1974124 92.86512478 178.8568306 93.99082184 C173.61384107 111.31416927 168.30162321 128.61617111 162.98589706 145.91730881 C154.9746635 171.99220025 147.00893265 198.07961992 139.14718628 224.20005798 C138.57792698 226.0912479 138.0080655 227.98225668 137.43753052 229.87306213 C136.04071904 234.5086825 134.66168576 239.14863621 133.30908203 243.79736328 C133.03673233 244.726017 132.76438263 245.65467072 132.48377991 246.61146545 C131.96897184 248.36887538 131.45926767 250.12779137 130.95555115 251.88841248 C129.22439765 257.77560235 129.22439765 257.77560235 127 260 C124.99537659 260.27415466 124.99537659 260.27415466 122.50610352 260.30639648 C121.57496231 260.32238388 120.64382111 260.33837128 119.6844635 260.35484314 C118.17196266 260.36288719 118.17196266 260.36288719 116.62890625 260.37109375 C115.59563705 260.38012222 114.56236786 260.3891507 113.49778748 260.39845276 C111.30967111 260.41297819 109.12151108 260.42184766 106.93334961 260.42553711 C103.57917445 260.43744082 100.22683382 260.48661166 96.87304688 260.53710938 C94.75000901 260.54657216 92.62695981 260.55380788 90.50390625 260.55859375 C89.49759659 260.57812607 88.49128693 260.59765839 87.45448303 260.61778259 C86.52018967 260.61170486 85.5858963 260.60562714 84.62329102 260.59936523 C83.80103531 260.60443588 82.9787796 260.60950653 82.13160706 260.61473083 C80 260 80 260 78.33099365 257.82247925 C76.9925166 254.98413085 75.98458268 252.24558788 75.08081055 249.2409668 C74.73072433 248.08940598 74.38063812 246.93784515 74.01994324 245.75138855 C73.64597916 244.49667252 73.27201508 243.24195648 72.88671875 241.94921875 C72.4815604 240.60803338 72.07576668 239.26703981 71.66938782 237.92622375 C70.7951643 235.03733628 69.92513276 232.14723203 69.05834961 229.25610352 C67.66746209 224.61723629 66.26720519 219.981231 64.86523438 215.34570312 C63.39510937 210.48361188 61.92541342 205.62139486 60.45870972 200.75827026 C55.79942583 185.31166452 51.08615511 169.88178639 46.3633728 154.45449829 C44.07562624 146.98086487 41.79177407 139.50604081 39.5078125 132.03125 C39.16826947 130.92008788 39.16826947 130.92008788 38.82186699 129.78647804 C16.90709077 58.06741474 16.90709077 58.06741474 6.52301025 23.56762695 C6.01603347 21.88365543 5.50836688 20.19989139 4.99993896 18.51635742 C4.32570348 16.28244536 3.65449606 14.04764917 2.984375 11.8125 C2.62053711 10.60207031 2.25669922 9.39164063 1.88183594 8.14453125 C1.12946573 5.46166074 0.54645202 2.7322601 0 0 Z " fill="#000000" transform="translate(199,872)"/>
<path d="M0 0 C54.45 0 108.9 0 165 0 C165 14.19 165 28.38 165 43 C126.72 43.33 88.44 43.66 49 44 C48.67 64.13 48.34 84.26 48 105 C55.13496094 104.98839844 62.26992188 104.97679687 69.62109375 104.96484375 C74.12825611 104.95973713 78.63541493 104.95492337 83.14257812 104.95117188 C90.30412533 104.9451829 97.46565981 104.93808116 104.62719727 104.92456055 C110.39783429 104.91373347 116.16845768 104.90772355 121.93910408 104.90512276 C124.14602943 104.90326818 126.352954 104.89964696 128.55987358 104.89426994 C131.63946041 104.8870619 134.71899014 104.88600896 137.79858398 104.88647461 C138.72071182 104.88287933 139.64283966 104.87928406 140.59291077 104.87557983 C146.88594784 104.88594784 146.88594784 104.88594784 148 106 C148 120.19 148 134.38 148 149 C115 149 82 149 48 149 C48.33 171.11 48.66 193.22 49 216 C87.94 216.33 126.88 216.66 167 217 C167 231.19 167 245.38 167 260 C145.24317432 260.02254521 123.48635804 260.04097812 101.72952366 260.05181217 C91.62819057 260.05697559 81.52686523 260.06401915 71.42553711 260.07543945 C62.62455536 260.0853849 53.82357922 260.09185309 45.02259201 260.09408849 C40.35953733 260.09539584 35.69649872 260.09848318 31.03344917 260.10573006 C26.64967634 260.11248809 22.26592629 260.11461741 17.88214874 260.11310768 C16.26839766 260.11338411 14.65464587 260.11539052 13.04089928 260.11920547 C10.8473111 260.12413934 8.6538103 260.12299944 6.46022034 260.12025452 C4.61432989 260.12163721 4.61432989 260.12163721 2.73114872 260.12304783 C0 260 0 260 -1 259 C-1.09934684 256.72698074 -1.12632476 254.45080261 -1.12698364 252.1756134 C-1.12854363 251.45235719 -1.13010362 250.72910097 -1.13171089 249.98392791 C-1.1357264 247.53850009 -1.13252817 245.09313346 -1.12939453 242.64770508 C-1.13074915 240.89908817 -1.13252942 239.15047155 -1.13470459 237.40185547 C-1.13929491 232.6143024 -1.13747682 227.82677072 -1.1343255 223.03921723 C-1.13178276 217.96435125 -1.13414727 212.88948703 -1.13571167 207.81462097 C-1.13753921 199.2164986 -1.13512372 190.61838475 -1.13037109 182.02026367 C-1.12504653 172.2792218 -1.12659962 162.53820123 -1.1321975 152.79715997 C-1.13685864 144.3290225 -1.13731489 135.86089117 -1.13475883 127.39275283 C-1.13324929 122.38602113 -1.13284294 117.37929909 -1.13629532 112.37256813 C-1.15387297 74.90343055 -0.53533387 37.47337084 0 0 Z " fill="#000000" transform="translate(429,872)"/>
<path d="M0 0 C15.84 0 31.68 0 48 0 C48.24956592 26.07072607 48.24956592 26.07072607 48.35546875 37.31640625 C48.42730066 44.94352796 48.49934279 52.57064721 48.57275391 60.19775391 C48.63202722 66.35750879 48.69026017 72.51727277 48.74781799 78.67704391 C48.76978171 81.0089591 48.79209946 83.34087099 48.81480408 85.67277908 C48.88712021 93.11512942 48.94854979 100.55747726 49 108 C49.00832855 109.06180229 49.0166571 110.12360458 49.02523804 111.2175827 C49.04773203 114.30700071 49.06307475 117.39636935 49.07617188 120.48583984 C49.08372749 121.41932062 49.09128311 122.3528014 49.09906769 123.31456947 C49.10217579 124.59350862 49.10217579 124.59350862 49.10534668 125.89828491 C49.10919121 126.64544958 49.11303574 127.39261425 49.11699677 128.16242027 C49 130 49 130 48 132 C51.14484025 129.04427041 53.52998601 125.95161388 55.9375 122.375 C59.68151505 116.87097106 63.5297725 111.45146513 67.4375 106.0625 C68.55992781 104.513044 69.68232392 102.96356503 70.8046875 101.4140625 C71.61824707 100.29112793 71.61824707 100.29112793 72.44824219 99.14550781 C77.78686164 91.76416927 83.06161233 84.33755048 88.30615234 76.88916016 C95.66510923 66.43872576 103.1451199 56.07869213 110.64550781 45.72949219 C116.55254471 37.57616676 122.44179818 29.41164368 128.25 21.1875 C128.69674072 20.55513428 129.14348145 19.92276855 129.60375977 19.27124023 C130.04905029 18.63903564 130.49434082 18.00683105 130.953125 17.35546875 C131.44627197 16.7013501 131.93941895 16.04723145 132.44750977 15.37329102 C134.15155311 12.92595457 134.15155311 12.92595457 135.40991211 9.62475586 C137.42022724 5.52456167 139.03271398 2.40254054 143 0 C151.73713417 -2.2266669 161.1480364 -1.21349663 170.0625 -0.8125 C172.57472088 -0.74724541 175.08710373 -0.68793775 177.59960938 -0.63476562 C183.73662185 -0.49195785 189.86755975 -0.27489175 196 0 C195.15676948 3.86245711 193.6050202 6.31229115 191.3125 9.5625 C190.92094727 10.1191333 190.52939453 10.6757666 190.12597656 11.24926758 C185.38801477 17.94086945 180.48752009 24.51589962 175.609375 31.10546875 C172.20408569 35.71171437 168.84518129 40.34999341 165.5 45 C160.46380789 51.99718048 155.36582262 58.94634993 150.24145508 65.87915039 C145.63680905 72.11635857 141.09009206 78.3936655 136.56933594 84.69189453 C134.15881612 88.0428313 131.7330593 91.37535021 129.22265625 94.65234375 C128.80153564 95.202854 128.38041504 95.75336426 127.9465332 96.32055664 C126.84037953 97.75758591 125.72526616 99.18770648 124.609375 100.6171875 C123.01421355 102.97895567 122.33994077 104.21021731 122 107 C122.80179939 109.44825515 122.80179939 109.44825515 124.17578125 111.97265625 C124.66892822 112.94477051 125.1620752 113.91688477 125.67016602 114.91845703 C126.21213623 115.95599121 126.75410645 116.99352539 127.3125 118.0625 C128.13802368 119.67680908 128.13802368 119.67680908 128.98022461 121.32373047 C132.6879224 128.55077136 136.46811626 135.74093327 140.27856445 142.91430664 C143.448538 148.89613956 146.48915062 154.9367251 149.5 161 C154.10248326 170.26216525 158.86329727 179.42914657 163.70996094 188.56542969 C170.63386159 201.63226112 177.43756516 214.74811544 184 228 C185.72600197 231.48074783 187.45602972 234.95946968 189.1875 238.4375 C189.59170166 239.25420166 189.99590332 240.07090332 190.41235352 240.91235352 C192.81265044 245.73308491 195.34207499 250.4333451 198.07543945 255.07446289 C199 257 199 257 199 260 C191.52549267 260.15201804 184.05138317 260.25716025 176.57568359 260.32958984 C174.03223779 260.35978007 171.48889622 260.40073681 168.94580078 260.45263672 C165.29173081 260.52534744 161.63903584 260.55943531 157.984375 260.5859375 C156.84570984 260.61690521 155.70704468 260.64787292 154.53387451 260.67977905 C151.5717197 260.68104452 148.89581214 260.62314991 146 260 C143.39941406 257.26171875 143.39941406 257.26171875 142 254 C141.57976562 253.20416504 141.15953125 252.40833008 140.7265625 251.58837891 C140.36304688 250.80897949 139.99953125 250.02958008 139.625 249.2265625 C139.20347656 248.33195312 138.78195312 247.43734375 138.34765625 246.515625 C137.90292969 245.56171875 137.45820312 244.6078125 137 243.625 C133.10151859 235.36317761 129.11164372 227.15782178 125 219 C120.67999188 210.41672581 116.48566697 201.78368504 112.37304688 193.09936523 C109.67218481 187.4230018 106.90634026 181.78363277 104.08203125 176.16796875 C103.74435226 175.49614563 103.40667328 174.82432251 103.0587616 174.13214111 C101.39152058 170.818372 99.71843367 167.50770078 98.0378418 164.20068359 C95.01786843 158.23194947 92.15830357 152.34001673 90 146 C85.73469408 147.54024936 83.61079395 150.74606462 81 154.25 C77.0611119 159.40720471 73.00683553 164.4142511 68.75 169.3125 C64.86841434 173.78835704 61.11695482 178.31573594 57.53125 183.03515625 C55.51725363 185.61944241 53.35983382 188.06157433 51.1640625 190.4921875 C48.5984454 193.8154365 48.84913212 197.28552736 48.79467773 201.30737305 C48.77473251 202.60849533 48.75478729 203.90961761 48.73423767 205.25016785 C48.71725454 206.6706836 48.70037569 208.0912006 48.68359375 209.51171875 C48.66301863 210.96475306 48.64202201 212.41778146 48.62062073 213.87080383 C48.56545766 217.6929953 48.51602302 221.51524026 48.46777344 225.33752441 C48.41751628 229.23873652 48.36185222 233.13987105 48.30664062 237.04101562 C48.19912959 244.69394469 48.09766902 252.34693833 48 260 C41.18238106 260.0252689 34.36477411 260.04283244 27.54711914 260.05493164 C25.22582549 260.05997333 22.90453503 260.06680651 20.58325195 260.07543945 C17.25471205 260.08751225 13.92621398 260.09322979 10.59765625 260.09765625 C9.03048607 260.10539818 9.03048607 260.10539818 7.43165588 260.11329651 C6.47073532 260.11337204 5.50981476 260.11344757 4.51977539 260.11352539 C3.66928116 260.115746 2.81878693 260.11796661 1.94252014 260.12025452 C0 260 0 260 -1 259 C-1.10031432 255.82428036 -1.1343709 252.67022734 -1.12698364 249.49403381 C-1.12854363 248.48343051 -1.13010362 247.4728272 -1.13171089 246.43159956 C-1.13572591 243.01696661 -1.13252922 239.60237748 -1.12939453 236.18774414 C-1.13074843 233.75065077 -1.13252829 231.31355761 -1.13470459 228.87646484 C-1.13880603 222.92488457 -1.13818463 216.97332172 -1.13529195 211.02174211 C-1.13303669 206.18155645 -1.13272593 201.34137432 -1.13381577 196.50118828 C-1.13404561 195.46912493 -1.13404561 195.46912493 -1.13428011 194.41621182 C-1.13459983 193.01849767 -1.13492404 191.62078352 -1.1352527 190.22306936 C-1.13810849 177.09627929 -1.13481992 163.96949619 -1.12945233 150.84270727 C-1.12499314 139.58971475 -1.12575272 128.33673256 -1.13037109 117.08374023 C-1.13573054 104.01896524 -1.13782436 90.95419639 -1.13475883 77.88942045 C-1.13444029 76.49399817 -1.13412592 75.09857589 -1.13381577 73.70315361 C-1.13366149 73.01659226 -1.13350721 72.33003092 -1.13334826 71.62266468 C-1.13248655 66.79528165 -1.13393873 61.96790252 -1.13629532 57.1405201 C-1.13940393 50.62925527 -1.1371692 44.11800685 -1.13140106 37.60674286 C-1.13008147 35.21952026 -1.13045396 32.83229602 -1.13266373 30.44507408 C-1.13540702 27.17963383 -1.13195518 23.91425532 -1.12698364 20.64881897 C-1.12921436 19.70978338 -1.13144509 18.77074779 -1.13374341 17.80325657 C-1.13113566 16.91659729 -1.12852791 16.029938 -1.12584114 15.11641026 C-1.12567879 14.36434663 -1.12551644 13.61228301 -1.12534916 12.83742958 C-0.93576935 8.5460617 -0.42742354 4.27423536 0 0 Z " fill="#000000" transform="translate(636,872)"/>
<path d="M0 0 C1.29696273 0.00092179 2.59392546 0.00184359 3.93019009 0.00279331 C4.64974973 0.00193889 5.36930937 0.00108446 6.11067384 0.00020415 C8.53983074 -0.00145277 10.96891972 0.00407415 13.39807034 0.00952244 C15.13218592 0.00980429 16.86630162 0.00964661 18.60041714 0.00907993 C23.32335815 0.00879188 28.046274 0.01468984 32.76920915 0.02165389 C37.69932285 0.02788616 42.62943707 0.02849113 47.5595541 0.0296793 C56.90225856 0.03279299 66.24495139 0.04100688 75.58765072 0.05102879 C86.22108549 0.06218876 96.85452081 0.06770008 107.48795998 0.07272422 C129.36807814 0.08318947 151.24818581 0.10078963 173.12829494 0.12304783 C173.8641096 2.91459869 174.23449278 5.26649959 174.15002346 8.15722752 C174.11938808 9.34421238 174.11938808 9.34421238 174.08813381 10.55517673 C174.04807217 11.78760105 174.04807217 11.78760105 174.00720119 13.04492283 C173.97620327 14.18888523 173.97620327 14.18888523 173.94457912 15.35595798 C173.86602576 18.19516151 173.77783948 21.03409194 173.69079494 23.87304783 C173.50516994 30.22554783 173.31954494 36.57804783 173.12829494 43.12304783 C152.33829494 43.45304783 131.54829494 43.78304783 110.12829494 44.12304783 C109.79829494 115.40304783 109.46829494 186.68304783 109.12829494 260.12304783 C93.28829494 260.12304783 77.44829494 260.12304783 61.12829494 260.12304783 C60.79829494 188.84304783 60.46829494 117.56304783 60.12829494 44.12304783 C28.44829494 43.62804783 28.44829494 43.62804783 -3.87170506 43.12304783 C-3.89233006 36.21367283 -3.91295506 29.30429783 -3.93420506 22.18554783 C-3.94330906 20.00195652 -3.95241306 17.81836521 -3.96179295 15.56860447 C-3.96471204 13.84847163 -3.96726061 12.12833811 -3.96936131 10.40820408 C-3.97447727 9.50646458 -3.97959324 8.60472507 -3.98486423 7.67566013 C-3.98517388 5.49113038 -3.93416375 3.30668453 -3.87170506 1.12304783 C-2.87170506 0.12304783 -2.87170506 0.12304783 0 0 Z " fill="#000000" transform="translate(846.8717050552368,871.8769521713257)"/>
<path d="M0 0 C146.1404014 0 146.1404014 0 166.79736328 19.46142578 C181.23641968 33.97855751 187.83515065 53.55215547 188.3125 73.75 C187.63364437 93.02359677 181.99725517 111.54966607 168.44921875 125.71875 C161.36301108 132.31898171 153.66021093 136.8084112 145 141 C150.53046181 155.14884754 156.30256975 169.17433528 162.3125 183.125 C162.63093872 183.86421692 162.94937744 184.60343384 163.27746582 185.36505127 C163.75742004 186.47913361 163.75742004 186.47913361 164.24707031 187.61572266 C164.89394833 189.11748368 165.54075826 190.61927403 166.1875 192.12109375 C166.50708679 192.86321106 166.82667358 193.60532837 167.15594482 194.36993408 C172.01965168 205.67884776 176.75623921 217.04131705 181.49658203 228.40234375 C182.99114144 231.97880161 184.49273595 235.55223277 185.99609375 239.125 C186.91413596 241.31246917 187.83210863 243.49996753 188.75 245.6875 C189.16870361 246.67967529 189.58740723 247.67185059 190.01879883 248.6940918 C190.39931396 249.60328369 190.7798291 250.51247559 191.171875 251.44921875 C191.5028418 252.23643311 191.83380859 253.02364746 192.17480469 253.8347168 C193 256 193 256 194 260 C176.84 260 159.68 260 142 260 C135.10468479 245.06015039 135.10468479 245.06015039 132.13769531 237.55712891 C131.79865677 236.7081604 131.45961823 235.85919189 131.11030579 234.98449707 C130.01269555 232.23325086 128.9202145 229.48000427 127.828125 226.7265625 C127.05699749 224.7888449 126.28565155 222.85121422 125.51409912 220.91366577 C123.90828924 216.87874353 122.30502111 212.84282364 120.70361328 208.80615234 C118.65511792 203.64307351 116.60033918 198.48252244 114.54368973 193.32268715 C112.95412999 189.33276676 111.36782117 185.34156014 109.78249359 181.34995651 C109.02596937 179.4462417 108.26845912 177.54291841 107.50992584 175.6400032 C106.45156429 172.98346444 105.39758511 170.3252276 104.34472656 167.66650391 C104.03406754 166.88922943 103.72340851 166.11195496 103.40333557 165.31112671 C103.11476181 164.57984558 102.82618805 163.84856445 102.52886963 163.09512329 C102.28040409 162.46951822 102.03193855 161.84391315 101.77594376 161.19935036 C100.71027836 158.17880725 99.87993668 155.07977838 99 152 C82.17 152 65.34 152 48 152 C48.01160156 159.71246094 48.02320313 167.42492188 48.03515625 175.37109375 C48.04026282 180.24283938 48.04507658 185.11458173 48.04882812 189.98632812 C48.05481728 197.72730185 48.0619195 205.4682638 48.07543945 213.20922852 C48.08626592 219.446703 48.09227632 225.68416487 48.09487724 231.92164803 C48.09673193 234.30720277 48.10035336 236.69275679 48.10573006 239.0783062 C48.11293729 242.40695591 48.11399108 245.73555279 48.11352539 249.06420898 C48.11712067 250.06114273 48.12071594 251.05807648 48.12442017 252.08522034 C48.1230455 252.98690948 48.12167084 253.88859863 48.12025452 254.81761169 C48.12117631 255.6057447 48.1220981 256.3938777 48.12304783 257.20589352 C48 259 48 259 47 260 C31.49 260 15.98 260 0 260 C0 174.2 0 88.4 0 0 Z M48 44 C47.90069467 45.98887494 47.87200538 47.98130417 47.87060547 49.97265625 C47.86745331 51.25068115 47.86430115 52.52870605 47.86105347 53.84545898 C47.86284325 55.25113967 47.8648942 56.65682005 47.8671875 58.0625 C47.86651442 59.49357113 47.86554436 60.92464215 47.86428833 62.35571289 C47.86281156 65.35857224 47.86496524 68.3614019 47.86962891 71.36425781 C47.87532619 75.22152571 47.87204708 79.07872404 47.86605644 82.93598938 C47.86245026 85.89213591 47.86358968 88.84826583 47.86618423 91.80441284 C47.86685335 93.22704069 47.86602563 94.64967003 47.86370468 96.07229614 C47.86117726 98.05731174 47.86570958 100.04233259 47.87060547 102.02734375 C47.87140106 103.15906006 47.87219666 104.29077637 47.87301636 105.45678711 C47.71166018 107.93531511 47.71166018 107.93531511 49 109 C50.58286706 109.10384488 52.17033631 109.13852358 53.7565918 109.14526367 C54.77242844 109.15164352 55.78826508 109.15802338 56.83488464 109.16459656 C58.50023003 109.16626579 58.50023003 109.16626579 60.19921875 109.16796875 C61.91187675 109.17296135 61.91187675 109.17296135 63.65913391 109.17805481 C66.08956499 109.183134 68.52000308 109.18546283 70.95043945 109.18530273 C74.62658705 109.18746419 78.30242222 109.20553916 81.97851562 109.22460938 C105.33851918 110.36183618 105.33851918 110.36183618 125.89453125 101.3125 C133.28112362 93.5993425 135.63644636 85.04923377 136.09375 74.53125 C135.80507725 63.65790961 132.31512984 56.175258 124.625 48.6875 C114.47252388 42.16090821 102.68843242 42.8466314 91.02734375 42.8671875 C89.82308243 42.86623077 88.61882111 42.86527405 87.37806702 42.86428833 C84.85271146 42.86361174 82.32735411 42.86542941 79.80200195 42.86962891 C75.91809258 42.87502697 72.03429664 42.8696447 68.15039062 42.86328125 C65.69270808 42.8639413 63.2350256 42.86522093 60.77734375 42.8671875 C59.0275547 42.86415115 59.0275547 42.86415115 57.24241638 42.86105347 C55.63923302 42.86578171 55.63923302 42.86578171 54.00366211 42.87060547 C52.58663246 42.87179886 52.58663246 42.87179886 51.14097595 42.87301636 C49.01747107 42.76119539 49.01747107 42.76119539 48 44 Z " fill="#000000" transform="translate(1050,872)"/>
<path d="M0 0 C18.81 0 37.62 0 57 0 C64.50166871 22.30759379 71.83910852 44.66366443 79.0625 67.0625 C79.38949261 68.07634136 79.38949261 68.07634136 79.72309113 69.11066437 C85.14143067 85.91335402 90.51838029 102.72798779 95.77435303 119.58227539 C98.64358228 128.77761681 101.61501208 137.93292925 104.6875 147.0625 C110.967339 165.72354005 116.91569257 184.49084021 122.88824463 203.2519989 C124.96023943 209.75561784 127.04701957 216.25425213 129.14743042 222.74874878 C130.47502363 226.8553168 131.79712515 230.96364181 133.11853027 235.07220459 C133.745435 237.01659829 134.3748922 238.96017096 135.00695801 240.90289307 C135.87724033 243.57898511 136.73848653 246.25782341 137.59765625 248.9375 C137.98852165 250.127491 137.98852165 250.127491 138.38728333 251.34152222 C140.11395651 256.77208698 140.11395651 256.77208698 139 259 C132.5222714 259.10140493 126.04474739 259.17146717 119.56640625 259.21972656 C117.3625524 259.23984419 115.15875193 259.26714172 112.95507812 259.30175781 C109.78762644 259.35026833 106.62088032 259.37296736 103.453125 259.390625 C101.97480194 259.42159271 101.97480194 259.42159271 100.46661377 259.45318604 C93.75977958 259.45538697 93.75977958 259.45538697 90.53076172 257.52001953 C88.35755369 253.94237148 87.21465293 250.29540883 86.0546875 246.2890625 C85.6707634 245.02042862 85.6707634 245.02042862 85.27908325 243.72616577 C84.46571634 241.02920904 83.67002584 238.32741371 82.875 235.625 C82.33321976 233.81474804 81.79026319 232.00484769 81.24609375 230.1953125 C80.47773058 227.63919433 79.71110211 225.08269985 78.95358276 222.52334595 C78.72639557 221.75590057 78.49920837 220.9884552 78.26513672 220.19775391 C78.06846405 219.53031158 77.87179138 218.86286926 77.66915894 218.17520142 C76.82627634 215.4352852 75.90650935 212.71952804 75 210 C43.32 209.67 11.64 209.34 -21 209 C-22.32 214.28 -23.64 219.56 -25 225 C-26.33783493 229.94768702 -27.75969669 234.86405805 -29.24462891 239.76904297 C-29.67147846 241.19507094 -30.08785468 242.62426861 -30.49462891 244.05615234 C-31.09539079 246.16759091 -31.72738732 248.2672973 -32.3671875 250.3671875 C-32.72925293 251.59550293 -33.09131836 252.82381836 -33.46435547 254.08935547 C-35 257 -35 257 -38.02514648 258.40454102 C-40.54682089 258.9092898 -42.63556083 259.18984227 -45.1875 259.0625 C-48.9240853 258.79039767 -48.9240853 258.79039767 -52 260 C-54.2838517 260.08378628 -56.570101 260.10729915 -58.85546875 260.09765625 C-59.84792351 260.09553383 -59.84792351 260.09553383 -60.86042786 260.09336853 C-62.96949828 260.08777996 -65.07846177 260.07522965 -67.1875 260.0625 C-68.61913909 260.05748352 -70.05077985 260.05292087 -71.48242188 260.04882812 C-74.98831588 260.0378143 -78.4941475 260.02055755 -82 260 C-81.42296246 252.75093144 -79.35619121 246.26565543 -77.08984375 239.37890625 C-76.69090408 238.14750412 -76.29196442 236.91610199 -75.88093567 235.64738464 C-74.79966105 232.31040238 -73.70956426 228.97636392 -72.61778259 225.64280701 C-71.47133507 222.13696571 -70.33333078 218.62838523 -69.19433594 215.12011719 C-66.68179778 207.38655054 -64.15765569 199.65680287 -61.63036346 191.92804718 C-60.66781737 188.98397698 -59.70624273 186.03958965 -58.74462891 183.09521484 C-56.1027566 175.00707252 -53.45983283 166.91927581 -50.8137207 158.83251953 C-41.17052825 129.34461601 -31.70176088 99.79972742 -22.51855469 70.1652832 C-19.20202061 59.51971344 -15.69252063 48.94309671 -12.10424805 38.38647461 C-7.8033406 25.65760994 -3.95796987 12.86340207 0 0 Z M27 45 C24.91248421 50.71151949 23.42783978 56.38096316 22.23014832 62.33894348 C18.35194598 81.5111871 12.38611738 100.02535616 6.52081299 118.66204834 C4.30554593 125.70797025 2.10889431 132.75971069 -0.08638573 139.81188011 C-0.84724055 142.24939246 -1.61386929 144.68502797 -2.38142395 147.12043762 C-2.84727656 148.60930096 -3.31299732 150.09820557 -3.77856445 151.5871582 C-3.98996063 152.25252594 -4.20135681 152.91789368 -4.41915894 153.60342407 C-5.59333238 157.3769086 -6.54831724 161.06906996 -7 165 C-5.92120693 166.30362595 -5.92120693 166.30362595 -3.33616638 166.12025452 C-2.14813919 166.11803391 -0.960112 166.11581329 0.26391602 166.11352539 C0.91755127 166.11367142 1.57118652 166.11381744 2.24462891 166.1139679 C4.41442128 166.11326883 6.58412879 166.10547678 8.75390625 166.09765625 C10.25463311 166.09579205 11.75536057 166.09436816 13.25608826 166.09336853 C17.21318226 166.08954352 21.17023978 166.0797134 25.12731934 166.06866455 C29.16234849 166.05845006 33.19738353 166.05387083 37.23242188 166.04882812 C45.15496469 166.03809111 53.07747781 166.0210149 61 166 C62.12540092 162.62379724 61.90617436 161.99039661 60.8046875 158.75 C60.50755859 157.8537793 60.21042969 156.95755859 59.90429688 156.03417969 C59.56462891 155.03290039 59.22496094 154.03162109 58.875 153 C58.1294709 150.73547239 57.38756765 148.46974926 56.6484375 146.203125 C56.44406067 145.57722473 56.23968384 144.95132446 56.02911377 144.30645752 C34.9742973 79.51003649 34.9742973 79.51003649 30.18920898 51.71899414 C29.85059423 49.80155452 29.43374764 47.89818272 29 46 C28.34 45.67 27.68 45.34 27 45 Z " fill="#000000" transform="translate(1334,872)"/>
<path d="M0 0 C2.30154216 -0.00217606 4.6025956 -0.02035549 6.90405273 -0.03930664 C19.8409608 -0.09103828 32.19489008 1.01307117 44.51147461 5.24780273 C45.84855469 5.70352661 45.84855469 5.70352661 47.21264648 6.16845703 C61.18416266 11.13524602 72.70809411 18.90344448 84.13647461 28.18530273 C85.53639648 29.22750977 85.53639648 29.22750977 86.96459961 30.29077148 C110.24962123 48.02065223 124.90846746 78.85634915 129.48022461 107.32592773 C131.4183156 122.71990757 131.21250491 139.04902826 127.61499023 154.16821289 C127.29108949 155.53355368 126.9855854 156.90336772 126.69702148 158.27661133 C122.83480879 176.58868253 114.00961454 194.53836751 101.13647461 208.18530273 C100.3978418 209.03866211 99.65920898 209.89202148 98.89819336 210.77124023 C94.01821953 216.38447438 88.87274939 221.45310847 83.13647461 226.18530273 C82.28956055 226.89299805 81.44264648 227.60069336 80.57006836 228.32983398 C53.32497953 249.96675432 18.70746171 257.18278441 -15.42602539 253.56030273 C-31.29486296 251.03810339 -45.88071581 246.01885401 -59.86352539 238.18530273 C-60.77102539 237.70448242 -61.67852539 237.22366211 -62.61352539 236.72827148 C-69.57508834 232.85701773 -75.42255435 227.72813034 -81.37084961 222.4855957 C-82.6608781 221.36183192 -83.98042675 220.27212418 -85.30493164 219.18920898 C-108.95203744 199.51853958 -121.35149314 168.7817893 -124.40771484 138.85400391 C-126.62221108 113.70902588 -122.04477397 89.01561892 -109.80541992 66.89868164 C-108.929625 65.30554303 -108.0959039 63.68947308 -107.26586914 62.07202148 C-93.87560208 36.2555866 -67.20158336 14.30426535 -39.50805664 5.40014648 C-26.10376447 1.34524305 -13.9724576 -0.00147373 0 0 Z " fill="#000000" transform="translate(1729.863525390625,877.814697265625)"/>
</svg>
